<?xml version="1.0" encoding="UTF-8"?>
<svg width="512" height="512" viewBox="0 0 512 512" fill="none" xmlns="http://www.w3.org/2000/svg">
  <rect width="512" height="512" rx="128" fill="#4F46E5"/>
  <path d="M256 128C238.33 128 224 142.33 224 160V256H192C174.33 256 160 270.33 160 288V352C160 369.67 174.33 384 192 384H224V352H192V288H224V160C224 142.33 238.33 128 256 128ZM288 160V352H320V288H352C369.67 288 384 273.67 384 256V192C384 174.33 369.67 160 352 160H288ZM320 224H352V256H320V224Z" fill="white"/>
  <path d="M256 64C150.98 64 64 150.98 64 256C64 361.02 150.98 448 256 448C361.02 448 448 361.02 448 256C448 150.98 361.02 64 256 64ZM256 96C343.2 96 416 168.8 416 256C416 343.2 343.2 416 256 416C168.8 416 96 343.2 96 256C96 168.8 168.8 96 256 96Z" fill="white"/>
</svg>